<svg width="18" height="41" xmlns="http://www.w3.org/2000/svg"><g fill="#FF4343" fill-rule="nonzero"><path d="M12.301 35.301l-3.3 3.299-3.302-3.301c-.4-.4-1-.4-1.4 0-.4.4-.4 1 0 1.4l4 4C8.5 40.901 8.75 41 9 41c.25 0 .5-.1.7-.3l4-4c.4-.4.4-1 0-1.401a.966.966 0 0 0-1.4.002h.001z"/><path d="M13.699 29.801c-.4-.4-1-.4-1.4 0l-3.3 3.299-3.3-3.301c-.4-.4-1-.4-1.4 0-.4.4-.4 1 0 1.4l4 4c.2.202.45.301.7.301.25 0 .5-.1.7-.3l4-4c.4-.399.4-1 0-1.399zM18 18V9c0-4.95-4.05-9-9-9S0 4.05 0 9v9c0 4.95 4.05 9 9 9s9-4.05 9-9zm-9 7c-3.85 0-7-3.15-7-7V9c0-3.85 3.15-7 7-7s7 3.15 7 7v9c0 3.85-3.15 7-7 7z"/><path d="M9 5.5c-.55 0-1 .45-1 1v3c0 .55.45 1 1 1s1-.45 1-1v-3c0-.55-.45-1-1-1z"/></g></svg>